<?xml version="1.0" encoding="UTF-8"?>
<!DOCTYPE svg PUBLIC "-//W3C//DTD SVG 1.1//EN" "http://www.w3.org/Graphics/SVG/1.1/DTD/svg11.dtd">
<!-- Creator: CorelDRAW X7 -->
<svg xmlns="http://www.w3.org/2000/svg" xml:space="preserve" width="1000px" height="132px" version="1.1" style="shape-rendering:geometricPrecision; text-rendering:geometricPrecision; image-rendering:optimizeQuality; fill-rule:evenodd; clip-rule:evenodd"
viewBox="0 0 1000 132"
 xmlns:xlink="http://www.w3.org/1999/xlink">
 <defs>
  <style type="text/css">
   <![CDATA[
    .fil0 {fill:white}
   ]]>
  </style>
 </defs>
 <g id="Layer_x0020_1">
  <metadata id="CorelCorpID_0Corel-Layer"/>
  <g id="_2314382749136">
   <path class="fil0" d="M696 102l-13 0c0,-6 1,-9 1,-16l0 -53c5,1 27,24 32,28 2,3 3,3 5,5 3,2 3,3 6,5 3,-7 2,-30 2,-40l12 0 0 68c-11,-2 -32,-34 -45,-35l0 38zm20 30l-8 0c-32,-2 -63,-25 -63,-67 0,-17 10,-36 21,-46 40,-35 91,-17 108,22 7,17 8,37 -1,54 -11,23 -34,36 -57,37z"/>
   <path class="fil0" d="M479 30l-33 0 0 67c0,4 1,4 1,7 8,0 18,0 26,0 6,1 20,3 20,-5 0,-17 -4,-11 -21,-12 -5,0 -5,-1 -11,-1l2 -12 21 0 -1 -15 -22 0 0 -14c11,0 19,-1 30,-1 1,-5 1,-7 1,-13 -3,-1 -3,-2 -6,-2 -2,0 -3,1 -7,1z"/>
   <path class="fil0" d="M966 67c3,2 6,7 7,11l-12 0c2,-3 5,-8 5,-11zm-31 36l15 0c7,-13 -1,-11 30,-11 1,4 3,6 4,11l16 0c-5,-21 -21,-46 -28,-63 -1,-4 -2,-7 -3,-10 -7,5 -33,65 -34,73z"/>
   <path class="fil0" d="M208 32c0,19 -1,55 2,71 10,2 26,1 36,1 14,0 10,-8 9,-17l-29 0c0,-5 1,-4 1,-9l0 -46c0,-4 -5,-3 -16,-3 -2,0 -3,1 -3,3z"/>
   <path class="fil0" d="M0 103l15 -1 0 -70c0,-4 -5,-3 -15,-3l0 74z"/>
  </g>
 </g>
</svg>
