<?xml version="1.0" encoding="UTF-8"?>
<!DOCTYPE svg PUBLIC "-//W3C//DTD SVG 1.1//EN" "http://www.w3.org/Graphics/SVG/1.1/DTD/svg11.dtd">
<!-- Creator: CorelDRAW X7 -->
<svg xmlns="http://www.w3.org/2000/svg" xml:space="preserve" width="1000px" height="107px" version="1.1" style="shape-rendering:geometricPrecision; text-rendering:geometricPrecision; image-rendering:optimizeQuality; fill-rule:evenodd; clip-rule:evenodd"
viewBox="0 0 1000 107"
 xmlns:xlink="http://www.w3.org/1999/xlink">
 <defs>
  <style type="text/css">
   <![CDATA[
    .fil0 {fill:white}
   ]]>
  </style>
 </defs>
 <g id="Layer_x0020_1">
  <metadata id="CorelCorpID_0Corel-Layer"/>
  <g id="_2314374654704">
   <path class="fil0" d="M312 26c4,1 11,6 14,10l11 11c1,1 1,1 2,1l5 5c1,1 1,2 2,2l0 -31 12 0 0 57c-2,-1 -7,-5 -9,-6 -4,-4 -8,-7 -12,-10 -2,-2 -9,-8 -10,-10l-2 -2c0,2 0,5 0,7l-1 20c0,1 0,1 0,2 -4,0 -8,1 -12,1 0,-19 0,-38 0,-57zm24 81c4,0 8,-1 12,-2 1,0 3,-1 5,-1 1,0 1,-1 2,-1 4,-1 7,-4 11,-6 1,-1 6,-5 7,-6 0,-1 1,-1 3,-3 3,-4 5,-8 7,-13 1,-3 3,-6 3,-10 3,-8 2,-7 2,-16 0,-3 -1,-8 -2,-11 -1,-3 -2,-6 -3,-9 -1,-1 -2,-2 -3,-3l-2 -4c-4,-6 -11,-12 -17,-15 -8,-4 -15,-7 -26,-7 -17,0 -30,8 -38,16 -8,8 -14,20 -15,32 0,2 0,4 -1,6 0,1 1,2 1,3 0,7 2,13 4,19 1,1 2,3 2,4 1,2 2,3 3,4l2 3c2,2 3,3 4,4 2,2 3,3 4,4 4,3 8,5 13,7 6,3 14,5 22,5z"/>
   <path class="fil0" d="M656 52l-2 -1 0 -14c4,0 7,0 10,1 11,4 5,14 -8,14zm-15 -27l1 58 11 0c0,-5 1,-13 1,-18 0,-2 0,-4 0,-6 0,0 0,0 0,1l15 23c2,0 2,0 4,0l7 -1c1,0 1,0 2,0 1,0 1,0 2,0l-10 -17c-2,-3 -2,-2 2,-7 1,-1 2,-3 3,-4 5,-10 4,-19 -5,-26 -1,0 -4,-1 -5,-2 -3,-1 -7,-2 -10,-2 -1,0 -2,0 -4,0 -2,0 -4,0 -7,0 -1,0 -2,0 -3,0 -2,0 -4,0 -4,1z"/>
   <path class="fil0" d="M182 24c0,10 2,36 -3,44 -1,2 -3,2 -7,2 -2,0 -4,0 -6,-1 -2,-1 -4,-2 -5,-4 -4,-7 -2,-22 -2,-31 0,-2 0,-5 0,-7 -1,-4 2,-3 -12,-3 0,3 -1,12 -1,16 0,2 0,3 0,5 0,1 0,1 0,1l0 7c1,8 2,18 7,23 4,4 9,7 14,8 11,1 19,-5 24,-13 1,-1 1,-1 1,-1 4,-8 3,-16 3,-25 0,-4 0,-10 0,-14 -1,-2 -1,-5 -1,-7 -1,0 -1,0 -1,-1l-11 1z"/>
   <path class="fil0" d="M800 25l-1 57c0,0 1,0 2,0l7 0c1,0 2,0 4,0 1,0 3,0 5,0 1,0 2,1 4,1 1,0 3,0 4,0 2,0 3,0 5,0 1,0 3,0 4,0l1 -9c0,-2 0,-2 0,-3 -3,-2 -12,-1 -13,-1 -1,0 -1,0 -2,0 -2,0 -2,0 -5,-1 0,0 -1,-1 -2,-1l0 -6 16 -2c1,-2 2,-9 2,-11 -1,-1 -1,-1 -2,-1 -1,0 -1,0 -2,0l-7 0c-2,0 -2,0 -3,0 -5,-1 -4,1 -4,-4 0,-1 0,-1 0,-3 0,-1 0,-2 0,-4 3,0 3,-1 9,-1 8,0 13,3 13,-6 0,-2 0,-3 0,-5 -1,0 -1,0 -3,0l-32 0z"/>
   <path class="fil0" d="M974 53c0,1 1,2 1,3 1,1 3,6 4,8l-10 0 2 -6c1,0 1,-1 1,-2 1,-1 1,-2 2,-3zm-26 30l12 0c1,0 2,-3 3,-4 0,-2 2,-3 2,-5 3,0 6,0 9,0 3,0 6,0 9,0 1,1 2,3 3,4 3,6 -2,5 14,5 0,-5 -18,-44 -22,-52 -1,-2 -2,-4 -4,-7 0,1 0,1 -1,2 0,0 0,1 -1,1l-9 20c0,1 -1,1 -1,2 0,1 -1,2 -1,4l-8 18c-1,2 -4,10 -5,12z"/>
   <path class="fil0" d="M499 64c-2,0 -3,1 -4,0 0,-2 3,-8 4,-11l1 -1c0,1 1,2 1,3 1,1 1,2 1,3 1,1 1,1 2,2 0,1 0,3 1,4 -2,0 -4,0 -6,0zm-25 19l12 0c1,0 1,-2 2,-3 0,-2 1,-2 1,-4 1,-1 1,-2 3,-2 2,0 3,0 5,0l12 0c0,0 2,4 3,5 2,5 1,4 12,4 1,0 1,0 2,0l-1 -4c-2,-6 -9,-20 -11,-26 -1,-1 -1,-1 -1,-2l-2 -3c0,-1 0,-2 -1,-2l-8 -18c-1,-1 -2,-3 -2,-3 -1,0 -1,0 -1,1l-5 9c0,1 -1,2 -1,3l-4 7c-3,8 -6,15 -9,23l-3 7c-1,1 -3,6 -3,8z"/>
   <path class="fil0" d="M0 25l0 58c3,0 6,0 9,0 3,0 6,0 9,0 3,0 6,-1 9,-1 3,0 6,0 9,0l0 -11 -12 0c-1,0 -4,0 -5,0l-6 -1 0 -11c0,-1 0,-2 0,-3 0,-5 0,-10 0,-15l-1 -7c0,-3 0,-5 0,-8 0,-1 1,-2 -1,-2 -1,0 -1,0 -3,0 -3,0 -5,1 -8,1z"/>
  </g>
 </g>
</svg>
