<?xml version="1.0" encoding="UTF-8"?>
<!DOCTYPE svg PUBLIC "-//W3C//DTD SVG 1.1//EN" "http://www.w3.org/Graphics/SVG/1.1/DTD/svg11.dtd">
<!-- Creator: CorelDRAW X7 -->
<svg xmlns="http://www.w3.org/2000/svg" xml:space="preserve" width="120px" height="120px" version="1.1" style="shape-rendering:geometricPrecision; text-rendering:geometricPrecision; image-rendering:optimizeQuality; fill-rule:evenodd; clip-rule:evenodd"
viewBox="0 0 120 120"
 xmlns:xlink="http://www.w3.org/1999/xlink">
 <defs>
  <style type="text/css">
   <![CDATA[
    .fil0 {fill:#B00F1D}
   ]]>
  </style>
 </defs>
 <g id="Layer_x0020_1">
  <metadata id="CorelCorpID_0Corel-Layer"/>
  <path class="fil0" d="M79 86l-18 0 0 -22 22 0 0 17c0,3 -2,5 -4,5zm-42 -5l0 -35c0,-3 0,-4 2,-5 1,-1 2,-1 2,-1l18 0 0 46 -18 0c-1,0 -1,0 -2,0 -1,-1 -2,-3 -2,-5zm24 -22l0 -19 18 0c0,0 1,0 2,1 0,0 1,0 1,1 1,1 1,2 1,4l0 16 -22 0c0,-1 0,-2 0,-3zm32 3c0,8 3,17 9,22l1 2 -19 0c0,0 0,0 0,-1 1,-1 2,-2 2,-3l0 -37c0,-2 -2,-4 -3,-5 -2,-2 -3,-2 -6,-2 -5,0 -9,0 -14,0 0,0 0,0 0,0 0,0 0,0 0,0 1,-1 3,-2 4,-2 2,-1 4,-2 6,-2 6,-2 9,-2 16,-2 3,0 7,1 10,1 3,0 6,1 9,3 -1,0 -2,2 -3,2 -1,1 -1,1 -3,3l-1 1c-1,2 -2,2 -3,4 -1,2 -3,5 -3,7 -1,3 -2,6 -2,9zm-81 -26c1,-1 3,-2 4,-2 6,-2 12,-2 19,-2 5,0 13,2 18,4 1,0 2,1 4,2l0 0c-2,0 -16,0 -18,0 -2,1 -5,4 -5,7l0 37c0,1 1,2 1,2 1,2 1,1 1,2l-19 0 1 -1c1,-2 1,-2 3,-3 1,-2 1,-3 2,-4 0,-1 0,-1 1,-2 0,0 0,-1 0,-1 1,-2 1,-3 2,-5 1,-6 1,-11 -1,-17l-1 -3c-1,-3 -4,-6 -6,-9l-3 -3c-1,0 -2,-2 -3,-2zm-7 0l0 1c1,0 4,3 6,4 3,2 6,7 8,11 3,9 1,20 -5,27 -1,1 -1,2 -2,2 0,1 -1,1 -1,2l-3 2c-1,1 -2,1 -2,2 -1,0 -4,2 -5,2 -1,1 -1,1 -1,1 10,0 20,0 30,0 10,0 20,0 30,0 10,0 20,0 30,0 10,0 20,0 30,0 0,0 -1,0 -2,-1 -1,-1 -4,-2 -5,-4l-3 -2c0,0 0,0 -1,0l-3 -3c-6,-8 -8,-18 -5,-28 2,-5 6,-10 11,-14 1,0 2,-1 3,-1l-6 -3c-2,-1 -4,-2 -6,-2 -10,-3 -21,-3 -31,0 -2,0 -4,1 -6,2 -3,2 -3,2 -6,3 -4,-3 -7,-4 -12,-5 -5,-1 -11,-2 -16,-2 -8,0 -15,1 -21,4 -2,0 -6,2 -6,2z"/>
 </g>
</svg>
